{"glyphs":{":":{"x_min":0,"x_max":157,"ha":157,"o":"m 74 88 b 50 88 29 68 29 44 b 29 20 50 0 74 0 b 99 0 119 20 119 44 b 119 68 99 88 74 88 z m 74 394 b 50 394 29 374 29 350 b 29 326 50 306 74 306 b 99 306 119 326 119 350 b 119 374 99 394 74 394 z"},"$":{"x_min":0,"x_max":420,"ha":420,"o":"m 391 481 l 391 525 b 391 529 390 567 369 610 b 347 654 307 684 260 695 l 260 742 l 160 742 l 160 695 b 114 685 73 653 51 610 b 30 568 29 529 29 525 l 29 481 b 29 477 31 378 160 320 l 160 102 b 134 126 128 171 128 175 l 128 219 l 29 219 l 29 175 b 29 171 31 131 52 90 b 73 49 115 16 160 4 l 160 -42 l 260 -42 l 260 4 b 307 16 346 46 369 90 b 390 133 391 171 391 175 l 391 219 b 391 223 389 322 260 380 l 260 598 b 288 574 291 529 291 525 l 291 481 z m 128 482 l 128 525 b 128 529 133 574 160 598 l 160 427 b 133 449 128 474 128 482 z m 291 218 l 291 175 b 291 171 288 126 260 102 l 260 273 b 283 250 291 221 291 218 z"},"?":{"x_min":0,"x_max":376,"ha":376,"o":"m 329 613 b 304 669 253 700 188 700 b 123 700 73 669 47 613 b 29 573 29 538 29 534 l 29 494 l 128 494 l 128 534 b 128 541 133 612 188 612 b 243 612 248 541 248 534 l 248 494 b 248 493 246 452 219 425 b 139 345 138 245 138 241 l 138 175 l 238 175 l 238 241 b 238 241 239 313 289 363 b 346 420 347 486 347 494 l 347 534 b 347 538 347 573 329 613 z m 181 88 b 157 88 136 68 136 44 b 136 20 157 0 181 0 b 206 0 226 20 226 44 b 226 68 206 88 181 88 z"},"<":{"x_min":0,"x_max":336,"ha":336,"o":"m 305 518 l 236 580 l 31 350 l 236 120 l 306 183 b 258 238 205 295 157 350 z"},"'":{"x_min":0,"x_max":179,"ha":179,"o":"m 45 700 l 29 558 l 97 558 l 150 700 z"},"=":{"x_min":0,"x_max":464,"ha":464,"o":"m 29 503 l 29 416 l 435 416 l 435 503 z m 29 197 l 435 197 l 435 284 l 29 284 z"},"a":{"x_min":0,"x_max":500,"ha":500,"o":"m 370 0 l 471 0 l 321 700 l 179 700 l 29 0 l 130 0 l 177 219 l 323 219 z m 196 306 b 214 391 231 472 250 557 l 304 306 z"},"L":{"x_min":0,"x_max":332,"ha":332,"o":"m 128 87 l 128 700 l 29 700 l 29 0 l 303 0 l 303 87 z"},"3":{"x_min":0,"x_max":376,"ha":376,"o":"m 347 494 l 347 534 b 347 538 347 573 329 613 b 304 669 253 700 188 700 b 123 700 73 669 47 613 b 29 573 29 538 29 534 l 29 494 l 128 494 l 128 534 b 128 545 135 612 188 612 b 243 612 248 543 248 534 l 248 494 b 248 475 236 416 188 416 l 138 416 l 138 328 l 188 328 b 237 328 248 259 248 244 l 248 175 b 248 134 226 87 188 87 b 140 87 128 154 128 171 l 128 241 l 29 241 l 29 175 b 29 171 29 132 46 93 b 71 33 121 0 188 0 b 255 0 304 33 330 93 b 346 132 347 171 347 175 l 347 241 b 347 246 342 320 298 371 b 342 418 347 488 347 494 z"},";":{"x_min":0,"x_max":181,"ha":181,"o":"m 72 51 l 29 -73 l 80 -76 l 151 51 z m 74 394 b 50 394 29 374 29 350 b 29 326 50 306 74 306 b 99 306 119 326 119 350 b 119 374 99 394 74 394 z"},"J":{"x_min":0,"x_max":420,"ha":420,"o":"m 291 700 l 291 175 b 291 159 281 87 210 87 b 139 87 128 160 128 175 l 128 219 l 29 219 l 29 175 b 29 171 30 133 51 90 b 80 32 137 0 210 0 b 283 0 340 32 369 90 b 390 133 391 171 391 175 l 391 700 z"},"V":{"x_min":0,"x_max":500,"ha":500,"o":"m 370 700 l 250 144 l 130 700 l 29 700 l 179 0 l 321 0 l 471 700 z"},"\"":{"x_min":0,"x_max":300,"ha":300,"o":"m 45 700 l 29 558 l 97 558 l 150 700 z m 166 700 l 150 558 l 218 558 l 271 700 z"},"7":{"x_min":0,"x_max":385,"ha":385,"o":"m 29 0 l 134 0 l 356 605 l 356 700 l 38 700 l 38 612 l 254 612 z"},"S":{"x_min":0,"x_max":420,"ha":420,"o":"m 391 481 l 391 525 b 391 529 390 567 369 610 b 340 668 283 700 210 700 b 137 700 80 668 51 610 b 30 567 29 529 29 525 l 29 481 b 29 476 37 363 194 308 b 281 277 291 223 291 218 l 291 175 b 291 159 281 87 210 87 b 139 87 128 160 128 175 l 128 219 l 29 219 l 29 175 b 29 171 30 133 51 90 b 80 32 137 0 210 0 b 283 0 340 32 369 90 b 390 133 391 171 391 175 l 391 219 b 391 224 389 336 226 391 b 140 420 129 473 128 481 l 128 525 b 128 540 139 612 210 612 b 281 612 291 541 291 525 l 291 481 z"},"}":{"x_min":0,"x_max":314,"ha":314,"o":"m 117 175 b 117 138 104 114 80 100 b 57 88 32 87 32 87 l 29 0 b 34 0 82 1 123 21 b 183 51 216 106 216 175 b 216 261 235 307 245 319 l 283 352 l 246 381 b 235 395 216 440 216 525 b 216 594 183 649 123 679 b 82 699 34 700 29 700 l 29 612 b 29 612 57 612 80 600 b 105 586 117 563 117 525 b 117 439 136 382 153 350 b 136 318 117 261 117 175 z"},"Z":{"x_min":0,"x_max":420,"ha":420,"o":"m 391 700 l 29 700 l 29 612 l 287 612 l 29 96 l 29 0 l 391 0 l 391 87 l 133 87 l 391 604 z"},"x":{"x_min":0,"x_max":453,"ha":453,"o":"m 424 700 l 317 700 b 287 626 256 554 226 480 l 136 700 l 29 700 l 173 350 l 29 0 l 136 0 l 226 220 l 317 0 l 424 0 l 280 350 z"},")":{"x_min":0,"x_max":245,"ha":245,"o":"m 29 612 b 105 612 116 541 116 525 l 116 175 b 116 159 105 87 29 87 l 29 0 b 106 0 165 32 194 90 b 215 133 216 171 216 175 l 216 525 b 216 529 215 567 194 610 b 165 668 106 700 29 700 z"},"&":{"x_min":0,"x_max":548,"ha":548,"o":"m 519 437 l 332 437 l 332 350 l 376 350 l 376 217 b 376 146 321 87 252 87 b 184 87 128 146 128 217 b 128 289 187 347 258 347 l 258 435 b 209 435 169 474 169 524 b 169 573 206 612 252 612 b 298 612 335 573 335 524 l 435 524 b 435 621 353 700 252 700 b 152 700 70 621 70 524 b 70 475 92 430 126 397 b 68 356 29 291 29 217 b 29 97 129 0 252 0 b 375 0 476 97 476 217 l 476 350 l 519 350 z"},"_":{"x_min":0,"x_max":420,"ha":420,"o":"m 391 88 l 29 88 l 29 0 l 391 0 z"},"v":{"x_min":0,"x_max":500,"ha":500,"o":"m 370 700 l 250 144 l 130 700 l 29 700 l 179 0 l 321 0 l 471 700 z"},"O":{"x_min":0,"x_max":420,"ha":420,"o":"m 210 0 b 283 0 340 32 369 90 b 390 133 391 171 391 175 l 391 525 b 391 529 390 567 369 610 b 340 668 283 700 210 700 b 137 700 80 668 51 610 b 30 567 29 529 29 525 l 29 175 b 29 171 30 133 51 90 b 80 32 137 0 210 0 z m 128 525 b 128 540 139 612 210 612 b 281 612 291 541 291 525 l 291 175 b 291 159 281 87 210 87 b 139 87 128 160 128 175 z"},"(":{"x_min":0,"x_max":245,"ha":245,"o":"m 216 87 b 140 87 128 160 128 175 l 128 525 b 128 540 140 612 216 612 l 216 700 b 139 700 80 668 51 610 b 30 567 29 529 29 525 l 29 175 b 29 171 30 133 51 90 b 80 32 139 0 216 0 z"},"C":{"x_min":0,"x_max":420,"ha":420,"o":"m 210 0 b 283 0 340 32 369 90 b 390 133 391 171 391 175 l 391 219 l 291 219 l 291 175 b 291 159 281 87 210 87 b 139 87 128 160 128 175 l 128 525 b 128 540 139 612 210 612 b 281 612 291 541 291 525 l 291 481 l 391 481 l 391 525 b 391 529 390 567 369 610 b 340 668 283 700 210 700 b 137 700 80 668 51 610 b 30 567 29 529 29 525 l 29 175 b 29 171 30 133 51 90 b 80 32 137 0 210 0 z"},"W":{"x_min":0,"x_max":720,"ha":720,"o":"m 590 700 b 564 535 536 371 510 206 l 414 700 l 306 700 b 280 535 252 370 225 205 l 130 700 l 29 700 l 164 0 l 294 0 b 317 146 342 289 365 435 l 449 0 l 578 0 l 691 700 z"},"A":{"x_min":0,"x_max":500,"ha":500,"o":"m 370 0 l 471 0 l 321 700 l 179 700 l 29 0 l 130 0 l 177 219 l 323 219 z m 196 306 b 214 391 231 472 250 557 l 304 306 z"},"f":{"x_min":0,"x_max":376,"ha":376,"o":"m 347 612 l 347 700 l 29 700 l 29 0 l 128 0 l 128 306 l 291 306 l 291 394 l 128 394 l 128 612 z"},"Q":{"x_min":0,"x_max":420,"ha":420,"o":"m 369 610 b 340 668 283 700 210 700 b 137 700 80 668 51 610 b 30 567 29 529 29 525 l 29 175 b 29 171 31 131 52 90 b 73 49 115 16 165 4 l 160 4 l 160 -71 l 260 -71 l 260 4 l 255 4 b 307 16 346 46 369 90 b 390 133 391 171 391 175 l 391 525 b 391 529 390 567 369 610 z m 291 175 b 291 171 288 126 260 102 l 260 170 l 160 170 l 160 102 b 134 126 128 171 128 175 l 128 525 b 128 540 139 612 210 612 b 281 612 291 541 291 525 z"},"w":{"x_min":0,"x_max":720,"ha":720,"o":"m 590 700 b 564 535 536 371 510 206 l 414 700 l 306 700 b 280 535 252 370 225 205 l 130 700 l 29 700 l 164 0 l 294 0 b 317 146 342 289 365 435 l 449 0 l 578 0 l 691 700 z"},"-":{"x_min":0,"x_max":420,"ha":420,"o":"m 391 394 l 29 394 l 29 306 l 391 306 z"},"E":{"x_min":0,"x_max":376,"ha":376,"o":"m 347 612 l 347 700 l 29 700 l 29 0 l 347 0 l 347 87 l 128 87 l 128 306 l 291 306 l 291 394 l 128 394 l 128 612 z"},"s":{"x_min":0,"x_max":420,"ha":420,"o":"m 335 481 l 335 525 b 335 529 334 567 313 610 b 284 668 227 700 154 700 b 81 700 24 668 -5 610 b -26 567 -27 529 -27 525 l -27 481 b -27 476 -19 363 138 308 b 225 277 235 223 235 218 l 235 175 b 235 159 225 87 154 87 b 83 87 72 160 72 175 l 72 219 l -27 219 l -27 175 b -27 171 -26 133 -5 90 b 24 32 81 0 154 0 b 227 0 284 32 313 90 b 334 133 335 171 335 175 l 335 219 b 335 224 333 336 170 391 b 84 420 73 473 72 481 l 72 525 b 72 540 83 612 154 612 b 225 612 235 541 235 525 l 235 481 z"},">":{"x_min":0,"x_max":336,"ha":336,"o":"m 30 517 b 78 462 131 405 179 350 l 30 183 l 100 120 l 305 350 l 100 580 z"},"l":{"x_min":0,"x_max":332,"ha":332,"o":"m 128 87 l 128 700 l 29 700 l 29 0 l 303 0 l 303 87 z"},"8":{"x_min":0,"x_max":376,"ha":376,"o":"m 347 494 l 347 534 b 347 538 347 573 329 613 b 304 669 253 700 188 700 b 123 700 73 669 47 613 b 29 573 29 538 29 534 l 29 494 b 29 488 33 418 78 371 b 34 320 29 246 29 241 l 29 175 b 29 171 29 132 46 93 b 71 33 121 0 188 0 b 255 0 304 33 330 93 b 346 132 347 171 347 175 l 347 241 b 347 246 342 320 298 371 b 342 418 347 488 347 494 z m 128 534 b 128 545 135 612 188 612 b 243 612 248 543 248 534 l 248 494 b 248 475 236 416 188 416 b 133 416 128 486 128 494 z m 248 175 b 248 134 226 87 188 87 b 140 87 128 154 128 171 l 128 240 b 128 248 133 328 188 328 b 237 328 248 259 248 244 z"},"\\":{"x_min":0,"x_max":367,"ha":367,"o":"m 29 700 l 235 0 l 338 0 l 132 700 z"},"e":{"x_min":0,"x_max":376,"ha":376,"o":"m 347 612 l 347 700 l 29 700 l 29 0 l 347 0 l 347 87 l 128 87 l 128 306 l 291 306 l 291 394 l 128 394 l 128 612 z"},"b":{"x_min":0,"x_max":420,"ha":420,"o":"m 210 0 b 213 0 391 0 391 197 b 391 282 352 332 316 359 b 343 389 369 438 369 503 b 369 699 195 700 191 700 l 29 700 l 29 0 z m 128 306 l 210 306 b 210 306 230 304 251 293 b 277 277 291 244 291 197 b 291 150 279 118 253 102 b 236 90 219 89 213 88 b 209 88 208 87 207 87 l 128 87 z m 128 612 l 191 612 b 216 612 270 586 270 503 b 270 420 216 394 191 394 l 128 394 z"},"%":{"x_min":0,"x_max":679,"ha":679,"o":"m 238 0 l 546 700 l 441 700 l 132 0 z m 508 2 b 456 2 415 29 393 79 b 379 110 378 145 378 148 l 378 182 b 378 186 379 221 393 252 b 415 302 456 329 508 329 b 561 329 602 302 624 252 b 638 221 638 186 638 182 l 638 148 b 638 145 638 110 624 79 b 602 29 561 2 508 2 z m 454 148 b 454 147 454 131 463 113 b 471 96 485 89 508 89 b 533 89 545 96 554 113 b 562 132 563 147 563 148 l 563 182 b 563 184 563 200 559 209 b 547 232 533 242 508 242 b 485 242 471 235 463 218 b 454 199 454 184 454 182 z m 171 373 b 120 373 78 404 55 450 b 44 479 41 516 41 519 l 41 553 b 41 557 42 592 56 623 b 78 672 119 700 171 700 b 223 700 264 673 287 623 b 300 589 301 557 301 553 l 301 519 b 301 516 300 483 286 450 b 264 400 223 373 171 373 z m 116 519 b 116 518 117 502 126 484 b 134 467 148 460 171 460 b 194 460 208 467 216 484 b 225 502 226 518 226 519 l 226 553 b 226 555 225 570 216 589 b 208 606 194 613 171 613 b 148 613 134 606 126 589 b 117 570 116 555 116 553 z"},"m":{"x_min":0,"x_max":595,"ha":595,"o":"m 432 700 l 297 161 l 163 700 l 29 700 l 29 0 l 128 0 l 128 428 l 235 0 l 359 0 b 394 144 430 284 466 428 l 466 0 l 566 0 l 566 700 z"},"#":{"x_min":0,"x_max":474,"ha":474,"o":"m 384 554 l 304 554 b 302 510 298 460 296 416 l 204 416 l 212 554 l 131 554 b 129 510 125 460 123 416 l 51 416 l 46 347 l 119 347 l 110 192 l 33 192 l 29 123 l 106 123 l 99 0 l 179 0 b 181 39 185 84 187 123 l 278 123 l 271 0 l 352 0 l 359 123 l 420 123 l 425 192 l 363 192 l 373 347 l 438 347 l 445 416 l 377 416 z m 282 192 l 191 192 l 200 347 l 292 347 z"},",":{"x_min":0,"x_max":181,"ha":181,"o":"m 72 51 l 29 -73 l 80 -76 l 151 51 z"},"n":{"x_min":0,"x_max":420,"ha":420,"o":"m 391 700 l 291 700 l 291 260 l 149 700 l 29 700 l 29 0 l 128 0 l 128 440 l 270 0 l 391 0 z"},"h":{"x_min":0,"x_max":420,"ha":420,"o":"m 291 700 l 291 394 l 128 394 l 128 700 l 29 700 l 29 0 l 128 0 l 128 306 l 291 306 l 291 0 l 391 0 l 391 700 z"},"z":{"x_min":0,"x_max":420,"ha":420,"o":"m 391 700 l 29 700 l 29 612 l 287 612 l 29 96 l 29 0 l 391 0 l 391 87 l 133 87 l 391 604 z"},"B":{"x_min":0,"x_max":420,"ha":420,"o":"m 210 0 b 213 0 391 0 391 197 b 391 282 352 332 316 359 b 343 389 369 438 369 503 b 369 699 195 700 191 700 l 29 700 l 29 0 z m 128 306 l 210 306 b 210 306 230 304 251 293 b 277 277 291 244 291 197 b 291 150 279 118 253 102 b 236 90 219 89 213 88 b 209 88 208 87 207 87 l 128 87 z m 128 612 l 191 612 b 216 612 270 586 270 503 b 270 420 216 394 191 394 l 128 394 z"},"K":{"x_min":0,"x_max":458,"ha":458,"o":"m 128 206 b 138 224 152 243 163 261 l 316 0 l 428 0 b 361 115 289 235 222 350 l 428 700 l 312 700 l 128 389 l 128 700 l 29 700 l 29 0 l 128 0 z"},"R":{"x_min":0,"x_max":420,"ha":420,"o":"m 330 352 b 362 382 391 429 391 503 b 391 700 213 700 210 700 l 29 700 l 29 0 l 128 0 l 128 306 l 210 306 b 253 306 291 259 291 219 l 291 0 l 391 0 l 391 219 b 391 274 369 320 330 352 z m 210 394 l 128 394 l 128 612 l 210 612 b 210 612 229 612 251 599 b 278 583 291 552 291 503 b 291 418 234 394 210 394 z"},"T":{"x_min":0,"x_max":420,"ha":420,"o":"m 391 700 l 29 700 l 29 612 l 160 612 l 160 0 l 260 0 l 260 612 l 391 612 z"},"P":{"x_min":0,"x_max":420,"ha":420,"o":"m 301 675 b 259 699 215 700 210 700 l 29 700 l 29 0 l 128 0 l 128 306 l 210 306 b 214 306 391 307 391 503 b 391 601 341 651 301 675 z m 253 408 b 231 395 211 394 210 394 l 128 394 l 128 612 l 210 612 b 210 612 229 612 251 599 b 278 583 291 552 291 503 b 291 456 279 424 253 408 z"},"|":{"x_min":0,"x_max":157,"ha":157,"o":"m 29 750 l 29 -54 l 128 -54 l 128 750 z"},"t":{"x_min":0,"x_max":420,"ha":420,"o":"m 391 700 l 29 700 l 29 612 l 160 612 l 160 0 l 260 0 l 260 612 l 391 612 z"},"M":{"x_min":0,"x_max":595,"ha":595,"o":"m 432 700 l 297 161 l 163 700 l 29 700 l 29 0 l 128 0 l 128 428 l 235 0 l 359 0 b 394 144 430 284 466 428 l 466 0 l 566 0 l 566 700 z"},"g":{"x_min":0,"x_max":420,"ha":420,"o":"m 210 0 b 283 0 340 32 369 90 b 390 133 391 171 391 175 l 391 394 l 226 394 l 226 306 l 291 306 l 291 175 b 291 159 281 87 210 87 b 139 87 128 160 128 175 l 128 525 b 128 540 139 612 210 612 b 281 612 291 541 291 525 l 291 481 l 391 481 l 391 525 b 391 529 390 567 369 610 b 340 668 283 700 210 700 b 137 700 80 668 51 610 b 30 567 29 529 29 525 l 29 175 b 29 171 30 133 51 90 b 80 32 137 0 210 0 z"},"j":{"x_min":0,"x_max":420,"ha":420,"o":"m 291 700 l 291 175 b 291 159 281 87 210 87 b 139 87 128 160 128 175 l 128 219 l 29 219 l 29 175 b 29 171 30 133 51 90 b 80 32 137 0 210 0 b 283 0 340 32 369 90 b 390 133 391 171 391 175 l 391 700 z"},"i":{"x_min":0,"x_max":157,"ha":157,"o":"m 29 700 l 29 0 l 128 0 l 128 700 z"},"y":{"x_min":0,"x_max":453,"ha":453,"o":"m 317 700 b 287 626 256 554 226 480 l 136 700 l 29 700 l 177 341 l 177 0 l 276 0 l 276 341 l 424 700 z"},"@":{"x_min":0,"x_max":770,"ha":770,"o":"m 385 700 b 189 700 29 543 29 350 b 29 157 189 0 385 0 b 581 0 741 157 741 350 b 741 543 581 700 385 700 z m 385 87 b 243 87 128 205 128 350 b 128 495 243 612 385 612 b 527 612 641 495 641 350 b 641 205 527 87 385 87 z m 445 505 b 420 518 395 525 363 525 b 264 525 182 446 182 350 b 182 253 264 175 363 175 b 395 175 420 181 445 194 l 445 175 l 544 175 l 544 525 l 445 525 z m 363 262 b 318 262 282 302 282 350 b 282 398 318 437 363 437 b 408 437 445 398 445 350 b 445 302 408 262 363 262 z"},".":{"x_min":0,"x_max":157,"ha":157,"o":"m 74 88 b 50 88 29 68 29 44 b 29 20 50 0 74 0 b 99 0 119 20 119 44 b 119 68 99 88 74 88 z"},"p":{"x_min":0,"x_max":420,"ha":420,"o":"m 301 675 b 259 699 215 700 210 700 l 29 700 l 29 0 l 128 0 l 128 306 l 210 306 b 214 306 391 307 391 503 b 391 601 341 651 301 675 z m 253 408 b 231 395 211 394 210 394 l 128 394 l 128 612 l 210 612 b 210 612 229 612 251 599 b 278 583 291 552 291 503 b 291 456 279 424 253 408 z"},"X":{"x_min":0,"x_max":453,"ha":453,"o":"m 424 700 l 317 700 b 287 626 256 554 226 480 l 136 700 l 29 700 l 173 350 l 29 0 l 136 0 l 226 220 l 317 0 l 424 0 l 280 350 z"},"*":{"x_min":0,"x_max":361,"ha":361,"o":"m 301 651 b 276 639 245 622 219 609 l 219 700 l 143 700 l 143 609 l 60 651 l 30 591 l 128 542 l 56 462 l 109 415 l 180 497 l 251 415 l 306 462 b 283 489 258 515 235 542 l 331 591 z"},"Y":{"x_min":0,"x_max":453,"ha":453,"o":"m 317 700 b 287 626 256 554 226 480 l 136 700 l 29 700 l 177 341 l 177 0 l 276 0 l 276 341 l 424 700 z"},"c":{"x_min":0,"x_max":420,"ha":420,"o":"m 210 0 b 283 0 340 32 369 90 b 390 133 391 171 391 175 l 391 219 l 291 219 l 291 175 b 291 159 281 87 210 87 b 139 87 128 160 128 175 l 128 525 b 128 540 139 612 210 612 b 281 612 291 541 291 525 l 291 481 l 391 481 l 391 525 b 391 529 390 567 369 610 b 340 668 283 700 210 700 b 137 700 80 668 51 610 b 30 567 29 529 29 525 l 29 175 b 29 171 30 133 51 90 b 80 32 137 0 210 0 z"},"!":{"x_min":0,"x_max":157,"ha":157,"o":"m 107 175 l 107 700 l 29 700 l 29 175 z m 69 88 b 45 88 24 68 24 44 b 24 20 45 0 69 0 b 94 0 114 20 114 44 b 114 68 94 88 69 88 z"},"/":{"x_min":0,"x_max":367,"ha":367,"o":"m 235 700 l 29 0 l 132 0 l 338 700 z"},"[":{"x_min":0,"x_max":245,"ha":245,"o":"m 216 612 l 216 700 l 29 700 l 29 0 l 216 0 l 216 87 l 128 87 l 128 612 z"},"6":{"x_min":0,"x_max":376,"ha":376,"o":"m 46 93 b 71 33 121 0 188 0 b 255 0 304 33 330 93 b 346 132 347 171 347 175 l 347 241 b 347 245 347 283 330 323 b 305 383 255 416 188 416 b 167 416 145 412 128 405 l 128 523 b 128 523 127 525 127 529 b 127 546 139 612 188 612 b 238 612 248 543 248 528 l 347 528 b 347 529 347 568 330 607 b 304 667 255 700 188 700 b 121 700 71 667 46 607 b 29 568 29 529 29 525 l 29 175 b 29 171 29 132 46 93 z m 128 240 b 128 248 133 328 188 328 b 237 328 248 259 248 244 l 248 175 b 248 134 226 87 188 87 b 140 87 128 154 128 171 z"},"r":{"x_min":0,"x_max":420,"ha":420,"o":"m 330 352 b 362 382 391 429 391 503 b 391 700 213 700 210 700 l 29 700 l 29 0 l 128 0 l 128 306 l 210 306 b 253 306 291 259 291 219 l 291 0 l 391 0 l 391 219 b 391 274 369 320 330 352 z m 210 394 l 128 394 l 128 612 l 210 612 b 210 612 229 612 251 599 b 278 583 291 552 291 503 b 291 418 234 394 210 394 z"},"2":{"x_min":0,"x_max":376,"ha":376,"o":"m 347 87 l 116 87 b 116 88 115 167 223 275 b 344 396 347 484 347 494 l 347 534 b 347 538 347 573 329 613 b 304 669 253 700 188 700 b 123 700 73 669 47 613 b 29 573 29 538 29 534 l 29 494 l 128 494 l 128 534 b 128 543 133 612 188 612 b 243 612 248 543 248 534 l 248 491 b 244 474 230 414 153 337 b 30 214 29 93 29 87 l 29 0 l 347 0 z"},"{":{"x_min":0,"x_max":314,"ha":314,"o":"m 197 175 b 197 261 178 318 161 350 b 178 382 197 439 197 525 b 197 562 210 586 234 600 b 257 612 282 612 282 612 l 285 700 b 280 700 232 699 191 679 b 131 649 98 594 98 525 b 98 440 79 395 68 381 l 31 352 l 69 319 b 79 307 98 261 98 175 b 98 106 131 51 191 21 b 232 1 280 0 285 0 l 285 87 b 285 87 257 88 234 100 b 209 114 197 137 197 175 z"},"9":{"x_min":0,"x_max":376,"ha":376,"o":"m 330 607 b 305 667 255 700 188 700 b 121 700 71 667 46 607 b 29 568 29 529 29 525 l 29 459 b 29 455 29 417 46 377 b 71 317 121 284 188 284 b 209 284 231 288 248 295 l 248 175 b 248 134 226 87 188 87 b 140 87 128 154 128 171 l 128 175 l 29 175 b 29 171 29 132 46 93 b 71 33 121 0 188 0 b 255 0 304 33 330 93 b 346 132 347 171 347 175 l 347 525 b 347 529 347 568 330 607 z m 248 460 b 248 452 243 372 188 372 b 141 372 128 438 128 455 l 128 523 b 128 523 127 525 127 529 b 127 546 139 612 188 612 b 238 612 248 543 248 528 z"}," ":{"x_min":0,"x_max":301,"ha":301,"o":""},"I":{"x_min":0,"x_max":157,"ha":157,"o":"m 29 700 l 29 0 l 128 0 l 128 700 z"},"H":{"x_min":0,"x_max":420,"ha":420,"o":"m 291 700 l 291 394 l 128 394 l 128 700 l 29 700 l 29 0 l 128 0 l 128 306 l 291 306 l 291 0 l 391 0 l 391 700 z"},"4":{"x_min":0,"x_max":376,"ha":376,"o":"m 303 284 l 303 700 l 173 700 l 29 292 l 29 197 l 204 197 l 204 0 l 303 0 l 303 197 l 347 197 l 347 284 z m 204 284 l 131 284 b 155 354 179 420 204 490 z"},"D":{"x_min":0,"x_max":420,"ha":420,"o":"m 210 0 b 214 0 257 1 298 21 b 358 51 391 106 391 175 l 391 525 b 391 529 390 567 369 610 b 340 668 283 700 210 700 l 29 700 l 29 0 z m 128 612 l 210 612 b 281 612 291 541 291 525 l 291 175 b 291 129 256 87 206 87 l 128 87 z"},"^":{"x_min":0,"x_max":433,"ha":433,"o":"m 30 536 l 91 466 l 217 574 l 342 466 l 403 536 l 217 695 z"},"0":{"x_min":0,"x_max":376,"ha":376,"o":"m 188 0 b 255 0 304 33 330 93 b 347 132 347 171 347 175 l 347 525 b 347 529 346 568 330 607 b 304 667 255 700 188 700 b 121 700 71 667 46 607 b 29 568 29 529 29 525 l 29 175 b 29 171 29 132 46 93 b 71 33 121 0 188 0 z m 188 612 b 226 612 248 566 248 525 l 248 175 b 248 175 247 150 237 126 b 223 92 203 87 188 87 b 140 87 128 154 128 171 l 128 525 b 128 525 129 550 139 574 b 153 608 173 612 188 612 z"},"F":{"x_min":0,"x_max":376,"ha":376,"o":"m 347 612 l 347 700 l 29 700 l 29 0 l 128 0 l 128 306 l 291 306 l 291 394 l 128 394 l 128 612 z"},"k":{"x_min":0,"x_max":458,"ha":458,"o":"m 128 206 b 138 224 152 243 163 261 l 316 0 l 428 0 b 361 115 289 235 222 350 l 428 700 l 312 700 l 128 389 l 128 700 l 29 700 l 29 0 l 128 0 z"},"u":{"x_min":0,"x_max":420,"ha":420,"o":"m 210 0 b 283 0 340 32 369 90 b 390 133 391 171 391 175 l 391 700 l 291 700 l 291 175 b 291 159 281 87 210 87 b 139 87 128 160 128 175 l 128 700 l 29 700 l 29 175 b 29 171 30 133 51 90 b 80 32 137 0 210 0 z"},"]":{"x_min":0,"x_max":245,"ha":245,"o":"m 29 87 l 29 0 l 216 0 l 216 700 l 29 700 l 29 612 l 116 612 l 116 87 z"},"U":{"x_min":0,"x_max":420,"ha":420,"o":"m 210 0 b 283 0 340 32 369 90 b 390 133 391 171 391 175 l 391 700 l 291 700 l 291 175 b 291 159 281 87 210 87 b 139 87 128 160 128 175 l 128 700 l 29 700 l 29 175 b 29 171 30 133 51 90 b 80 32 137 0 210 0 z"},"o":{"x_min":0,"x_max":420,"ha":420,"o":"m 210 0 b 283 0 340 32 369 90 b 390 133 391 171 391 175 l 391 525 b 391 529 390 567 369 610 b 340 668 283 700 210 700 b 137 700 80 668 51 610 b 30 567 29 529 29 525 l 29 175 b 29 171 30 133 51 90 b 80 32 137 0 210 0 z m 128 525 b 128 540 139 612 210 612 b 281 612 291 541 291 525 l 291 175 b 291 159 281 87 210 87 b 139 87 128 160 128 175 z"},"N":{"x_min":0,"x_max":420,"ha":420,"o":"m 391 700 l 291 700 l 291 260 l 149 700 l 29 700 l 29 0 l 128 0 l 128 440 l 270 0 l 391 0 z"},"+":{"x_min":0,"x_max":420,"ha":420,"o":"m 391 394 l 260 394 l 260 525 l 160 525 l 160 394 l 29 394 l 29 306 l 160 306 l 160 175 l 260 175 l 260 306 l 391 306 z"},"G":{"x_min":0,"x_max":420,"ha":420,"o":"m 210 0 b 283 0 340 32 369 90 b 390 133 391 171 391 175 l 391 394 l 226 394 l 226 306 l 291 306 l 291 175 b 291 159 281 87 210 87 b 139 87 128 160 128 175 l 128 525 b 128 540 139 612 210 612 b 281 612 291 541 291 525 l 291 481 l 391 481 l 391 525 b 391 529 390 567 369 610 b 340 668 283 700 210 700 b 137 700 80 668 51 610 b 30 567 29 529 29 525 l 29 175 b 29 171 30 133 51 90 b 80 32 137 0 210 0 z"},"q":{"x_min":0,"x_max":420,"ha":420,"o":"m 369 610 b 340 668 283 700 210 700 b 137 700 80 668 51 610 b 30 567 29 529 29 525 l 29 175 b 29 171 31 131 52 90 b 73 49 115 16 165 4 l 160 4 l 160 -71 l 260 -71 l 260 4 l 255 4 b 307 16 346 46 369 90 b 390 133 391 171 391 175 l 391 525 b 391 529 390 567 369 610 z m 291 175 b 291 171 288 126 260 102 l 260 170 l 160 170 l 160 102 b 134 126 128 171 128 175 l 128 525 b 128 540 139 612 210 612 b 281 612 291 541 291 525 z"},"d":{"x_min":0,"x_max":420,"ha":420,"o":"m 210 0 b 214 0 257 1 298 21 b 358 51 391 106 391 175 l 391 525 b 391 529 390 567 369 610 b 340 668 283 700 210 700 l 29 700 l 29 0 z m 128 612 l 210 612 b 281 612 291 541 291 525 l 291 175 b 291 129 256 87 206 87 l 128 87 z"},"1":{"x_min":0,"x_max":279,"ha":279,"o":"m 131 700 l 30 574 l 104 516 l 151 572 l 151 0 l 250 0 l 250 700 z"},"5":{"x_min":0,"x_max":376,"ha":376,"o":"m 330 323 b 305 383 255 416 188 416 l 150 414 l 150 612 l 303 612 l 303 700 l 51 700 l 51 320 b 95 322 145 328 189 328 b 237 328 248 259 248 244 l 248 175 b 248 175 247 150 237 126 b 223 92 203 87 188 87 b 140 87 128 154 128 171 l 128 241 l 29 241 l 29 175 b 29 171 29 132 46 93 b 71 33 121 0 188 0 b 255 0 304 33 330 93 b 346 132 347 171 347 175 l 347 241 b 347 245 347 283 330 323 z"}}}
